<svg width="24" height="24" viewBox="0 0 24 24" fill="none" xmlns="http://www.w3.org/2000/svg">
<g id="clarity:administrator-solid" clip-path="url(#clip0_397_1638)">
<path id="Vector" d="M10.5 10C12.433 10 14 8.433 14 6.5C14 4.567 12.433 3 10.5 3C8.567 3 7 4.567 7 6.5C7 8.433 8.567 10 10.5 10Z" fill="#717171"/>
<path id="Vector_2" d="M10.9015 20C10.7207 19.8147 10.6027 19.5738 10.5652 19.3132C10.5277 19.0526 10.5727 18.7865 10.6936 18.5547L10.9836 17.9879L10.3871 17.8008C10.1439 17.722 9.93217 17.5631 9.78404 17.3483C9.63591 17.1334 9.55948 16.8744 9.56635 16.6105V15.4486C9.56589 15.1859 9.64703 14.9299 9.7978 14.7187C9.94856 14.5074 10.1609 14.3519 10.4036 14.2753L11 14.0883L10.7155 13.5215C10.5982 13.2928 10.5535 13.0316 10.5879 12.7752C10.6223 12.5187 10.734 12.28 10.907 12.0931C10.486 12.036 10.062 12.0057 9.63748 12.0024C8.38349 11.9719 7.13843 12.2283 5.9911 12.7534C4.84378 13.2786 3.82246 14.0595 3 15.0405V19.4332C3 19.5835 3.05765 19.7277 3.16027 19.834C3.26289 19.9403 3.40207 20 3.5472 20H10.9015Z" fill="#717171"/>
<path id="Vector_3" d="M20.8897 15.2323L19.7884 14.902C19.7121 14.6302 19.605 14.368 19.4691 14.1205L20.0197 13.0969C20.041 13.0589 20.0488 13.0148 20.0418 12.9718C20.0348 12.9288 20.0134 12.8895 19.9812 12.8602L19.1827 12.0567C19.152 12.0268 19.1128 12.007 19.0704 12.0001C19.028 11.9933 18.9846 11.9995 18.9459 12.0182L17.9272 12.5685C17.6765 12.4324 17.4127 12.3218 17.1398 12.2383L16.8039 11.1376C16.7891 11.097 16.7621 11.062 16.7266 11.0374C16.6911 11.0127 16.6489 10.9997 16.6057 11H15.4603C15.4174 11.0012 15.3758 11.0156 15.3414 11.0412C15.3069 11.0668 15.2811 11.1024 15.2676 11.1431L14.9372 12.2438C14.659 12.3247 14.3911 12.4374 14.1387 12.5795L13.1421 12.0292C13.1033 12.0086 13.0591 12.0007 13.0156 12.0066C12.9721 12.0126 12.9316 12.032 12.8998 12.0622L12.0903 12.8547C12.0584 12.8854 12.0374 12.9257 12.0305 12.9693C12.0235 13.013 12.031 13.0578 12.0518 13.0969L12.6024 14.0985C12.4549 14.3471 12.3349 14.611 12.2445 14.8855L11.1432 15.2212C11.1015 15.2333 11.065 15.2586 11.0391 15.2934C11.0132 15.3282 10.9995 15.3705 11 15.4139V16.5421C10.9995 16.5854 11.0132 16.6278 11.0391 16.6625C11.065 16.6973 11.1015 16.7227 11.1432 16.7347L12.2445 17.0704C12.327 17.34 12.4378 17.6001 12.5749 17.8465L12.0242 18.8921C12.0035 18.9312 11.996 18.976 12.0029 19.0197C12.0099 19.0634 12.0309 19.1036 12.0628 19.1343L12.8832 19.9323C12.9151 19.9625 12.9556 19.9819 12.9991 19.9879C13.0425 19.9938 13.0868 19.9859 13.1255 19.9653L14.1553 19.415C14.4003 19.5467 14.6587 19.6519 14.9262 19.7287L15.2566 20.8569C15.2704 20.8985 15.297 20.9347 15.3326 20.9604C15.3682 20.9861 15.4109 20.9999 15.4548 21H16.5836C16.6266 20.9988 16.6681 20.9844 16.7026 20.9588C16.7371 20.9332 16.7628 20.8976 16.7764 20.8569L17.1068 19.7287C17.371 19.6528 17.6259 19.5476 17.8667 19.415L18.9074 19.9653C18.9461 19.9859 18.9904 19.9938 19.0339 19.9879C19.0773 19.9819 19.1179 19.9625 19.1497 19.9323L19.9536 19.1343C19.9839 19.1025 20.0033 19.062 20.0092 19.0185C20.0152 18.9751 20.0073 18.9309 19.9867 18.8921L19.436 17.8575C19.5677 17.6164 19.673 17.3617 19.7499 17.098L20.8512 16.7622C20.8926 16.7489 20.9289 16.7234 20.9555 16.689C20.982 16.6546 20.9975 16.613 20.9999 16.5696V15.4304C21.0012 15.3905 20.9917 15.351 20.9723 15.3161C20.9529 15.2812 20.9244 15.2522 20.8897 15.2323ZM16.0275 17.8299C15.6635 17.831 15.3074 17.7242 15.0042 17.5228C14.701 17.3215 14.4644 17.0348 14.3244 16.699C14.1843 16.3632 14.1471 15.9935 14.2175 15.6365C14.2878 15.2796 14.4625 14.9515 14.7195 14.6939C14.9765 14.4363 15.3042 14.2607 15.6611 14.1893C16.018 14.1179 16.3881 14.154 16.7245 14.293C17.0609 14.4319 17.3485 14.6675 17.5508 14.9699C17.7531 15.2723 17.8612 15.628 17.8612 15.9917C17.8612 16.4783 17.6681 16.945 17.3244 17.2896C16.9807 17.6342 16.5143 17.8285 16.0275 17.8299Z" fill="#717171"/>
</g>
<defs>
<clipPath id="clip0_397_1638">
<rect width="24" height="24" fill="white"/>
</clipPath>
</defs>
</svg>
