<svg width="24" height="24" viewBox="0 0 24 24" fill="none" xmlns="http://www.w3.org/2000/svg">
<g id="Frame 1000002332">
<path id="Union" fill-rule="evenodd" clip-rule="evenodd" d="M2.73223 3.79357C3.20107 3.3261 3.83696 3.06348 4.5 3.06348H19.5C20.163 3.06348 20.7989 3.3261 21.2678 3.79357C21.7366 4.26104 22 4.89507 22 5.55617V17.3965C22 17.8923 21.8025 18.3678 21.4508 18.7184C21.0992 19.069 20.6223 19.266 20.125 19.266H19.3087C19.0887 18.4845 18.6687 17.5884 17.9762 16.7733H20.75V5.55617C20.75 5.22562 20.6183 4.90861 20.3839 4.67487C20.1495 4.44114 19.8315 4.30983 19.5 4.30983H4.5C4.16848 4.30983 3.85054 4.44114 3.61612 4.67487C3.3817 4.90861 3.25 5.22562 3.25 5.55617V16.7733H6.02375C5.40688 17.5003 4.95261 18.3501 4.69125 19.266H3.875C3.37772 19.266 2.90081 19.069 2.54917 18.7184C2.19754 18.3678 2 17.8923 2 17.3965V5.55617C2 4.89507 2.26339 4.26104 2.73223 3.79357ZM16.8825 20.959H17.391C17.5596 20.959 17.6962 21.0998 17.6962 21.2735V21.7976H6.30379V21.2735C6.30379 21.0998 6.44042 20.959 6.60895 20.959H7.11754V9.00887C7.11754 8.6615 7.39078 8.37991 7.72784 8.37991H16.2721C16.6092 8.37991 16.8825 8.6615 16.8825 9.00887V20.959ZM9.86392 10.0571C9.6954 10.0571 9.55877 10.1979 9.55877 10.3716V11.4199C9.55877 11.5935 9.6954 11.7343 9.86392 11.7343H10.8811C11.0496 11.7343 11.1863 11.5935 11.1863 11.4199V10.3716C11.1863 10.1979 11.0496 10.0571 10.8811 10.0571H9.86392ZM9.86392 12.5729C9.6954 12.5729 9.55877 12.7138 9.55877 12.8874V13.9357C9.55877 14.1094 9.6954 14.2502 9.86392 14.2502H10.8811C11.0496 14.2502 11.1863 14.1094 11.1863 13.9357V12.8874C11.1863 12.7138 11.0496 12.5729 10.8811 12.5729H9.86392ZM9.86392 16.766H10.8811C11.0496 16.766 11.1863 16.6252 11.1863 16.4515V15.4032C11.1863 15.2296 11.0496 15.0888 10.8811 15.0888H9.86392C9.6954 15.0888 9.55877 15.2296 9.55877 15.4032V16.4515C9.55877 16.6252 9.6954 16.766 9.86392 16.766ZM11.1863 20.959H12.8137V18.7577C12.8137 18.584 12.6771 18.4432 12.5086 18.4432H11.4914C11.3229 18.4432 11.1863 18.584 11.1863 18.7577V20.959ZM14.1361 16.766C14.3046 16.766 14.4412 16.6252 14.4412 16.4515V15.4032C14.4412 15.2296 14.3046 15.0888 14.1361 15.0888H13.1189C12.9504 15.0888 12.8137 15.2296 12.8137 15.4032V16.4515C12.8137 16.6252 12.9504 16.766 13.1189 16.766H14.1361ZM14.1361 14.2502C14.3046 14.2502 14.4412 14.1094 14.4412 13.9357V12.8874C14.4412 12.7138 14.3046 12.5729 14.1361 12.5729H13.1189C12.9504 12.5729 12.8137 12.7138 12.8137 12.8874V13.9357C12.8137 14.1094 12.9504 14.2502 13.1189 14.2502H14.1361ZM14.1361 11.7343C14.3046 11.7343 14.4412 11.5935 14.4412 11.4199V10.3716C14.4412 10.1979 14.3046 10.0571 14.1361 10.0571H13.1189C12.9504 10.0571 12.8137 10.1979 12.8137 10.3716V11.4199C12.8137 11.5935 12.9504 11.7343 13.1189 11.7343H14.1361Z" fill="#717171"/>
</g>
</svg>
