<svg width="27" height="27" viewBox="0 0 27 27" fill="none" xmlns="http://www.w3.org/2000/svg">
<g id="Frame">
<g id="Group 1000002323">
<path id="Vector" d="M20.6708 7.67614L21.7083 6.63859L19.7855 4.71443L18.748 5.75198C17.5024 4.8205 16.0256 4.18817 14.4142 3.95836V2.48975H11.6945V3.95836C10.0831 4.18953 8.60636 4.8205 7.36211 5.75334L6.3232 4.71443L4.4004 6.63723L5.43795 7.67478C4.50647 8.92038 3.87415 10.3972 3.64434 12.0086H2.17572V14.7282H3.64434C3.87551 16.3396 4.50647 17.8164 5.43931 19.0606L4.4004 20.0996L6.3232 22.0224L7.36075 20.9848C8.605 21.9163 10.0831 22.5486 11.6932 22.7798V24.247H14.4128V22.7784C16.0242 22.5472 17.501 21.9163 18.7453 20.9834L19.7828 22.021L21.7056 20.0982L20.6681 19.0606C21.5995 17.8164 22.2319 16.3383 22.463 14.7282H23.933V12.0086H22.4644C22.2346 10.3972 21.6023 8.92038 20.6708 7.67614ZM13.0544 17.4479C10.8011 17.4479 8.97487 15.6216 8.97487 13.3684C8.97487 11.1152 10.8011 9.2889 13.0544 9.2889C15.3076 9.2889 17.1339 11.1152 17.1339 13.3684C17.1339 15.6216 15.3076 17.4479 13.0544 17.4479Z" fill="#717171"/>
<path id="Vector_2" d="M13.0543 16.0878C14.5563 16.0878 15.774 14.8701 15.774 13.3681C15.774 11.8661 14.5563 10.6484 13.0543 10.6484C11.5523 10.6484 10.3347 11.8661 10.3347 13.3681C10.3347 14.8701 11.5523 16.0878 13.0543 16.0878Z" fill="#717171"/>
</g>
</g>
</svg>
