<svg width="24" height="24" viewBox="0 0 24 24" fill="none" xmlns="http://www.w3.org/2000/svg">
<g id="Frame">
<g id="icons">
<g id="exit2">
<path id="Vector" d="M12 10.2C12.99 10.2 13.8 9.39 13.8 8.4V4.8C13.8 3.81 12.99 3 12 3C11.01 3 10.2 3.81 10.2 4.8V8.4C10.2 9.39 11.01 10.2 12 10.2Z" fill="#717171"/>
<path id="Vector_2" d="M18.39 5.61C18.12 5.34 17.85 5.25 17.4 5.25C16.68 5.25 16.05 5.88 16.05 6.6C16.05 6.96 16.23 7.32 16.41 7.59C17.58 8.76 18.21 10.29 18.21 12C18.21 15.51 15.42 18.3 11.91 18.3C8.4 18.3 5.61 15.51 5.61 12C5.61 10.29 6.33 8.67 7.5 7.59C7.77 7.32 7.95 6.96 7.95 6.6C7.95 5.88 7.32 5.25 6.6 5.25C6.24 5.25 5.88 5.43 5.61 5.61C3.99 7.23 3 9.48 3 12C3 16.95 7.05 21 12 21C16.95 21 21 16.95 21 12C21 9.48 20.01 7.23 18.39 5.61Z" fill="#717171"/>
</g>
</g>
</g>
</svg>
