<svg width="24" height="24" viewBox="0 0 24 24" fill="none" xmlns="http://www.w3.org/2000/svg">
<g id="Frame">
<g id="Group 1000003335">
<path id="Vector" d="M6.79997 20.9998C6.79997 20.9998 5.59998 20.9998 5.59998 19.7999C5.59998 18.5999 6.79997 14.9999 11.6 14.9999C16.4 14.9999 17.6 18.5999 17.6 19.7999C17.6 20.9998 16.4 20.9998 16.4 20.9998H6.79997ZM11.6 13.8599C12.3956 13.8599 13.1587 13.5438 13.7213 12.9812C14.2839 12.4186 14.6 11.6555 14.6 10.8599C14.6 10.0642 14.2839 9.30115 13.7213 8.73854C13.1587 8.17593 12.3956 7.85986 11.6 7.85986C10.8043 7.85986 10.0413 8.17593 9.47865 8.73854C8.91604 9.30115 8.59997 10.0642 8.59997 10.8599C8.59997 11.6555 8.91604 12.4186 9.47865 12.9812C10.0413 13.5438 10.8043 13.8599 11.6 13.8599Z" fill="white"/>
<path id="Vector_2" d="M4.4 3C3.76348 3 3.15303 3.25286 2.70294 3.70294C2.25286 4.15303 2 4.76348 2 5.4L2 16.8C2 17.2774 2.18964 17.7352 2.52721 18.0728C2.86477 18.4103 3.32261 18.6 3.8 18.6H4.5836C4.83451 17.7181 5.27061 16.8999 5.8628 16.2H3.2V5.4C3.2 5.08174 3.32643 4.77651 3.55147 4.55147C3.77651 4.32643 4.08174 4.2 4.4 4.2H18.8C19.1182 4.2 19.4235 4.32643 19.6485 4.55147C19.8736 4.77651 20 5.08174 20 5.4V16.2H17.3372C18.002 16.9848 18.4052 17.8476 18.6164 18.6H19.4C19.8774 18.6 20.3352 18.4103 20.6728 18.0728C21.0103 17.7352 21.2 17.2774 21.2 16.8V5.4C21.2 4.76348 20.9471 4.15303 20.497 3.70294C20.0469 3.25286 19.4365 3 18.8 3H4.4Z" fill="white"/>
</g>
</g>
</svg>
