<svg width="24" height="24" viewBox="0 0 24 24" fill="none" xmlns="http://www.w3.org/2000/svg">
<g id="Frame 1000002331">
<g id="Group 1000003337">
<path id="Vector" d="M6.40955 21C6.40955 21 5.28369 21 5.28369 19.8862C5.28369 18.7723 6.40955 15.4307 10.913 15.4307C15.4164 15.4307 16.5423 18.7723 16.5423 19.8862C16.5423 21 15.4164 21 15.4164 21H6.40955ZM10.913 14.3725C11.6595 14.3725 12.3754 14.0792 12.9033 13.5569C13.4311 13.0347 13.7276 12.3264 13.7276 11.5879C13.7276 10.8493 13.4311 10.1411 12.9033 9.61883C12.3754 9.09661 11.6595 8.80322 10.913 8.80322C10.1665 8.80322 9.45059 9.09661 8.92274 9.61883C8.39489 10.1411 8.09834 10.8493 8.09834 11.5879C8.09834 12.3264 8.39489 13.0347 8.92274 13.5569C9.45059 14.0792 10.1665 14.3725 10.913 14.3725Z" fill="#717171"/>
<g id="icons">
<path id="share" d="M21.9722 6.13799L19.6964 4.06903C19.5239 3.89662 19.3171 4.06903 19.3171 4.34489V5.37937C17.6964 5.37937 16.3171 6.37937 15.6619 7.72419C15.4205 8.17247 15.2826 8.65522 15.1791 9.13798C15.1102 9.48281 15.6274 9.65522 15.8343 9.34488C16.5929 8.13798 17.8688 7.34488 19.3171 7.34488V8.48281C19.3171 8.75867 19.5239 8.93109 19.6964 8.75867L21.9722 6.68971C22.1101 6.55178 22.1101 6.27592 21.9722 6.13799Z" fill="#717171"/>
</g>
<path id="Subtract" fill-rule="evenodd" clip-rule="evenodd" d="M15.6042 4.1123H4.22827C3.63729 4.1123 3.07053 4.34802 2.65264 4.76759C2.23476 5.18716 2 5.75623 2 6.34959V16.9767C2 17.4217 2.17607 17.8485 2.48948 18.1632C2.80289 18.4779 3.22797 18.6547 3.6712 18.6547H4.39873C4.63168 17.8326 5.03658 17.0699 5.58639 16.4174H3.11413V6.34959C3.11413 6.05291 3.23151 5.76838 3.44046 5.55859C3.6494 5.34881 3.93278 5.23095 4.22827 5.23095H15.6042V4.1123ZM18.712 10.2107V16.4174H16.2397C16.857 17.149 17.2313 17.9533 17.4274 18.6547H18.1549C18.5982 18.6547 19.0232 18.4779 19.3366 18.1632C19.6501 17.8485 19.8261 17.4217 19.8261 16.9767V10.2107H18.712Z" fill="#717171"/>
</g>
</g>
</svg>
