<svg width="24" height="24" viewBox="0 0 24 24" fill="none" xmlns="http://www.w3.org/2000/svg">
<g id="material-symbols:admin-panel-settings">
<path id="Vector" d="M15.2778 16.25C15.6713 16.25 16.0056 16.1113 16.2808 15.8339C16.5566 15.5571 16.6944 15.2208 16.6944 14.825C16.6944 14.4292 16.5566 14.0929 16.2808 13.8161C16.0056 13.5387 15.6713 13.4 15.2778 13.4C14.8843 13.4 14.5499 13.5387 14.2748 13.8161C13.999 14.0929 13.8611 14.4292 13.8611 14.825C13.8611 15.2208 13.999 15.5571 14.2748 15.8339C14.5499 16.1113 14.8843 16.25 15.2778 16.25ZM15.2778 19.1C15.7657 19.1 16.2144 18.985 16.6236 18.7551C17.0329 18.5259 17.3634 18.2212 17.6153 17.8412C17.269 17.6354 16.8991 17.4771 16.5056 17.3662C16.112 17.2554 15.7028 17.2 15.2778 17.2C14.8528 17.2 14.4435 17.2554 14.05 17.3662C13.6565 17.4771 13.2866 17.6354 12.9403 17.8412C13.1921 18.2212 13.5227 18.5259 13.9319 18.7551C14.3412 18.985 14.7898 19.1 15.2778 19.1ZM15.2778 21C13.9713 21 12.8578 20.537 11.9373 19.6111C11.0161 18.6845 10.5556 17.5642 10.5556 16.25C10.5556 14.9358 11.0161 13.8155 11.9373 12.8889C12.8578 11.963 13.9713 11.5 15.2778 11.5C16.5843 11.5 17.6981 11.963 18.6192 12.8889C19.5397 13.8155 20 14.9358 20 16.25C20 17.5642 19.5397 18.6845 18.6192 19.6111C17.6981 20.537 16.5843 21 15.2778 21ZM10.5556 21C8.36759 20.4458 6.5615 19.183 5.13728 17.2114C3.71243 15.2405 3 13.0517 3 10.645V4.85L10.5556 2L18.1111 4.85V10.2413C17.7019 10.0354 17.2416 9.87708 16.7303 9.76625C16.2184 9.65542 15.7343 9.6 15.2778 9.6C13.4519 9.6 11.8935 10.2492 10.6028 11.5475C9.31204 12.8458 8.66667 14.4133 8.66667 16.25C8.66667 17.2317 8.85178 18.1183 9.222 18.91C9.59159 19.7017 10.0597 20.3904 10.6264 20.9762C10.6106 20.9762 10.599 20.9804 10.5914 20.9886C10.5833 20.9962 10.5713 21 10.5556 21Z" fill="#717171"/>
</g>
</svg>
